<svg width="2500" height="396" viewBox="0 0 2500 396" fill="none" xmlns="http://www.w3.org/2000/svg">
<path d="M1992.36 96.9243H1894.04V18.0914H2196.96V96.9243H2098.63V392.154H1992.36V96.9243ZM1757.08 18.0914H1863.36V392.242H1757.08V18.0914Z" fill="black"/>
<path d="M1844.48 68.7822C1844.48 87.6601 1829.19 103.042 1810.22 103.042C1791.26 103.042 1775.87 87.6601 1775.87 68.7822C1775.87 49.8168 1791.26 34.4348 1810.22 34.4348C1829.19 34.4348 1844.48 49.8168 1844.48 68.7822Z" fill="#5F00C0"/>
<mask id="path-3-inside-1_0_1" fill="white">
<path fill-rule="evenodd" clip-rule="evenodd" d="M2146.38 339.211C2143.61 341.917 2141.54 345.06 2139.9 348.639C2138.34 352.305 2137.57 356.233 2137.57 360.423C2137.57 364.7 2138.34 368.716 2139.9 372.382C2141.54 376.048 2143.61 379.191 2146.38 381.897C2149.06 384.515 2152.25 386.61 2155.88 388.182C2159.42 389.665 2163.31 390.364 2167.37 390.364C2171.43 390.364 2175.23 389.665 2178.86 388.182C2182.4 386.61 2185.51 384.515 2188.27 381.897C2190.95 379.191 2193.03 376.048 2194.67 372.382C2196.22 368.716 2197 364.7 2197 360.423C2197 356.233 2196.22 352.305 2194.67 348.639C2193.03 345.06 2190.95 341.917 2188.27 339.211C2185.51 336.592 2182.4 334.497 2178.86 332.926C2175.23 331.442 2171.43 330.657 2167.37 330.657C2163.31 330.657 2159.42 331.442 2155.88 332.926C2152.25 334.497 2149.06 336.592 2146.38 339.211ZM2149.92 378.754C2147.76 376.397 2146.03 373.691 2144.74 370.636C2143.53 367.494 2142.92 364.089 2142.92 360.423C2142.92 356.844 2143.53 353.527 2144.74 350.384C2146.03 347.329 2147.76 344.623 2149.92 342.354C2152.08 340.171 2154.67 338.338 2157.69 337.029C2160.63 335.72 2163.91 335.108 2167.37 335.108C2170.83 335.108 2173.93 335.72 2176.96 337.029C2179.9 338.338 2182.49 340.171 2184.65 342.354C2186.81 344.623 2188.53 347.329 2189.74 350.384C2191.04 353.527 2191.64 356.844 2191.64 360.423C2191.64 364.089 2191.04 367.494 2189.74 370.636C2188.53 373.691 2186.81 376.397 2184.65 378.754C2182.49 381.024 2179.9 382.769 2176.96 384.079C2173.93 385.388 2170.83 386.087 2167.37 386.087C2163.91 386.087 2160.63 385.388 2157.69 384.079C2154.67 382.769 2152.08 381.024 2149.92 378.754ZM2178.34 345.583C2176.35 343.925 2173.24 343.052 2169.18 343.052H2155.79V377.968H2161.15V362.954H2166.85L2176.27 377.968H2182.06L2172.21 362.605C2174.8 362.343 2176.96 361.47 2178.69 359.987C2180.41 358.503 2181.28 356.233 2181.28 353.09C2181.28 349.686 2180.33 347.242 2178.34 345.583ZM2170.22 358.415C2169.18 358.503 2167.97 358.59 2166.76 358.59H2161.15V347.504H2168.32C2169.18 347.504 2170.13 347.504 2171 347.678C2171.88 347.74 2172.74 348.009 2173.5 348.464L2175.23 350.035C2175.66 350.734 2175.92 351.694 2175.92 352.829C2175.92 354.225 2175.66 355.273 2175.14 356.058C2174.63 356.844 2173.93 357.368 2173.16 357.804C2172.29 358.153 2171.34 358.415 2170.22 358.415Z"/>
<path fill-rule="evenodd" clip-rule="evenodd" d="M1254.87 317.563C1254.87 365.049 1235.78 391.935 1163.3 391.935H966.083C828.21 391.935 798.925 367.843 798.925 283.781V263.53C798.925 182.611 838.231 159.217 971.525 159.217H1120.97C1145.59 159.217 1154.15 157.733 1154.15 142.195C1154.15 90.4312 1162.35 97.0654 1040.12 97.0654H855.249C825.187 97.0654 820.608 81.7894 820.608 62.3235V46.0873C820.608 11.9565 835.207 18.5033 991.653 18.5033H1050.22C1256.43 18.5033 1255.04 0.17214 1255.04 189.594V317.563H1254.87ZM1065.6 231.93C1149.57 231.93 1153.37 229.137 1153.37 266.498H1153.45V280.551C1153.45 315.468 1139.55 308.572 1063.18 308.572H1009.28C903.798 308.572 902.934 315.643 902.934 275.227V267.458C902.934 229.312 903.798 231.93 1004.78 231.93H1065.6Z"/>
<path d="M618.637 391.848L551.342 391.935C370.622 391.935 320 366.097 320 210.369V200.244C320 44.6034 374.164 18.1541 551.256 18.1541H618.551C632.519 18.1541 645.244 18.1176 656.836 18.0842C761.312 17.784 773.7 17.7484 773.7 47.1348V72.2747C773.7 92.5262 761.261 96.9781 740.787 96.9781H557.13C445.174 96.9781 420.294 113.04 420.294 197.101V206.703C420.294 289.979 445.951 308.659 556.439 308.659H740.874C767.049 308.659 773.787 311.627 773.787 333.625V364.788L773.787 365.641C773.791 374.324 773.794 380.175 770.025 384.107C762.235 392.234 738.336 392.161 665.043 391.937H665.025C651.353 391.895 635.962 391.848 618.637 391.848Z"/>
<path d="M1714.96 143.679C1714.96 165.414 1703.39 166.636 1680.24 166.636H1652.51C1649.31 166.636 1646.35 166.699 1643.61 166.757C1625.94 167.132 1617.66 167.307 1616.31 149.091C1612.51 111.73 1602.49 96.9781 1536.23 96.9781H1459.95C1430.67 96.9781 1416.07 109.373 1416.07 135.823V353.702C1416.07 377.008 1404.49 391.848 1380.65 391.848H1345.23C1322.08 391.848 1309.81 377.008 1309.81 353.702V101.692C1309.81 51.8485 1329.85 18.1541 1403.8 18.1541H1568.63C1670.3 18.1541 1715.05 52.6341 1715.05 135.212V143.679H1714.96Z"/>
</mask>
<path fill-rule="evenodd" clip-rule="evenodd" d="M2146.38 339.211C2143.61 341.917 2141.54 345.06 2139.9 348.639C2138.34 352.305 2137.57 356.233 2137.57 360.423C2137.57 364.7 2138.34 368.716 2139.9 372.382C2141.54 376.048 2143.61 379.191 2146.38 381.897C2149.06 384.515 2152.25 386.61 2155.88 388.182C2159.42 389.665 2163.31 390.364 2167.37 390.364C2171.43 390.364 2175.23 389.665 2178.86 388.182C2182.4 386.61 2185.51 384.515 2188.27 381.897C2190.95 379.191 2193.03 376.048 2194.67 372.382C2196.22 368.716 2197 364.7 2197 360.423C2197 356.233 2196.22 352.305 2194.67 348.639C2193.03 345.06 2190.95 341.917 2188.27 339.211C2185.51 336.592 2182.4 334.497 2178.86 332.926C2175.23 331.442 2171.43 330.657 2167.37 330.657C2163.31 330.657 2159.42 331.442 2155.88 332.926C2152.25 334.497 2149.06 336.592 2146.38 339.211ZM2149.92 378.754C2147.76 376.397 2146.03 373.691 2144.74 370.636C2143.53 367.494 2142.92 364.089 2142.92 360.423C2142.92 356.844 2143.53 353.527 2144.74 350.384C2146.03 347.329 2147.76 344.623 2149.92 342.354C2152.08 340.171 2154.67 338.338 2157.69 337.029C2160.63 335.72 2163.91 335.108 2167.37 335.108C2170.83 335.108 2173.93 335.72 2176.96 337.029C2179.9 338.338 2182.49 340.171 2184.65 342.354C2186.81 344.623 2188.53 347.329 2189.74 350.384C2191.04 353.527 2191.64 356.844 2191.64 360.423C2191.64 364.089 2191.04 367.494 2189.74 370.636C2188.53 373.691 2186.81 376.397 2184.65 378.754C2182.49 381.024 2179.9 382.769 2176.96 384.079C2173.93 385.388 2170.83 386.087 2167.37 386.087C2163.91 386.087 2160.63 385.388 2157.69 384.079C2154.67 382.769 2152.08 381.024 2149.92 378.754ZM2178.34 345.583C2176.35 343.925 2173.24 343.052 2169.18 343.052H2155.79V377.968H2161.15V362.954H2166.85L2176.27 377.968H2182.06L2172.21 362.605C2174.8 362.343 2176.96 361.47 2178.69 359.987C2180.41 358.503 2181.28 356.233 2181.28 353.09C2181.28 349.686 2180.33 347.242 2178.34 345.583ZM2170.22 358.415C2169.18 358.503 2167.97 358.59 2166.76 358.59H2161.15V347.504H2168.32C2169.18 347.504 2170.13 347.504 2171 347.678C2171.88 347.74 2172.74 348.009 2173.5 348.464L2175.23 350.035C2175.66 350.734 2175.92 351.694 2175.92 352.829C2175.92 354.225 2175.66 355.273 2175.14 356.058C2174.63 356.844 2173.93 357.368 2173.16 357.804C2172.29 358.153 2171.34 358.415 2170.22 358.415Z" fill="#5F00C0"/>
<path fill-rule="evenodd" clip-rule="evenodd" d="M2146.38 339.211C2143.61 341.917 2141.54 345.06 2139.9 348.639C2138.34 352.305 2137.57 356.233 2137.57 360.423C2137.57 364.7 2138.34 368.716 2139.9 372.382C2141.54 376.048 2143.61 379.191 2146.38 381.897C2149.06 384.515 2152.25 386.61 2155.88 388.182C2159.42 389.665 2163.31 390.364 2167.37 390.364C2171.43 390.364 2175.23 389.665 2178.86 388.182C2182.4 386.61 2185.51 384.515 2188.27 381.897C2190.95 379.191 2193.03 376.048 2194.67 372.382C2196.22 368.716 2197 364.7 2197 360.423C2197 356.233 2196.22 352.305 2194.67 348.639C2193.03 345.06 2190.95 341.917 2188.27 339.211C2185.51 336.592 2182.4 334.497 2178.86 332.926C2175.23 331.442 2171.43 330.657 2167.37 330.657C2163.31 330.657 2159.42 331.442 2155.88 332.926C2152.25 334.497 2149.06 336.592 2146.38 339.211ZM2149.92 378.754C2147.76 376.397 2146.03 373.691 2144.74 370.636C2143.53 367.494 2142.92 364.089 2142.92 360.423C2142.92 356.844 2143.53 353.527 2144.74 350.384C2146.03 347.329 2147.76 344.623 2149.92 342.354C2152.08 340.171 2154.67 338.338 2157.69 337.029C2160.63 335.72 2163.91 335.108 2167.37 335.108C2170.83 335.108 2173.93 335.72 2176.96 337.029C2179.9 338.338 2182.49 340.171 2184.65 342.354C2186.81 344.623 2188.53 347.329 2189.74 350.384C2191.04 353.527 2191.64 356.844 2191.64 360.423C2191.64 364.089 2191.04 367.494 2189.74 370.636C2188.53 373.691 2186.81 376.397 2184.65 378.754C2182.49 381.024 2179.9 382.769 2176.96 384.079C2173.93 385.388 2170.83 386.087 2167.37 386.087C2163.91 386.087 2160.63 385.388 2157.69 384.079C2154.67 382.769 2152.08 381.024 2149.92 378.754ZM2178.34 345.583C2176.35 343.925 2173.24 343.052 2169.18 343.052H2155.79V377.968H2161.15V362.954H2166.85L2176.27 377.968H2182.06L2172.21 362.605C2174.8 362.343 2176.96 361.47 2178.69 359.987C2180.41 358.503 2181.28 356.233 2181.28 353.09C2181.28 349.686 2180.33 347.242 2178.34 345.583ZM2170.22 358.415C2169.18 358.503 2167.97 358.59 2166.76 358.59H2161.15V347.504H2168.32C2169.18 347.504 2170.13 347.504 2171 347.678C2171.88 347.74 2172.74 348.009 2173.5 348.464L2175.23 350.035C2175.66 350.734 2175.92 351.694 2175.92 352.829C2175.92 354.225 2175.66 355.273 2175.14 356.058C2174.63 356.844 2173.93 357.368 2173.16 357.804C2172.29 358.153 2171.34 358.415 2170.22 358.415Z" fill="#5F00C0"/>
<path fill-rule="evenodd" clip-rule="evenodd" d="M2146.38 339.211C2143.61 341.917 2141.54 345.06 2139.9 348.639C2138.34 352.305 2137.57 356.233 2137.57 360.423C2137.57 364.7 2138.34 368.716 2139.9 372.382C2141.54 376.048 2143.61 379.191 2146.38 381.897C2149.06 384.515 2152.25 386.61 2155.88 388.182C2159.42 389.665 2163.31 390.364 2167.37 390.364C2171.43 390.364 2175.23 389.665 2178.86 388.182C2182.4 386.61 2185.51 384.515 2188.27 381.897C2190.95 379.191 2193.03 376.048 2194.67 372.382C2196.22 368.716 2197 364.7 2197 360.423C2197 356.233 2196.22 352.305 2194.67 348.639C2193.03 345.06 2190.95 341.917 2188.27 339.211C2185.51 336.592 2182.4 334.497 2178.86 332.926C2175.23 331.442 2171.43 330.657 2167.37 330.657C2163.31 330.657 2159.42 331.442 2155.88 332.926C2152.25 334.497 2149.06 336.592 2146.38 339.211ZM2149.92 378.754C2147.76 376.397 2146.03 373.691 2144.74 370.636C2143.53 367.494 2142.92 364.089 2142.92 360.423C2142.92 356.844 2143.53 353.527 2144.74 350.384C2146.03 347.329 2147.76 344.623 2149.92 342.354C2152.08 340.171 2154.67 338.338 2157.69 337.029C2160.63 335.72 2163.91 335.108 2167.37 335.108C2170.83 335.108 2173.93 335.72 2176.96 337.029C2179.9 338.338 2182.49 340.171 2184.65 342.354C2186.81 344.623 2188.53 347.329 2189.74 350.384C2191.04 353.527 2191.64 356.844 2191.64 360.423C2191.64 364.089 2191.04 367.494 2189.74 370.636C2188.53 373.691 2186.81 376.397 2184.65 378.754C2182.49 381.024 2179.9 382.769 2176.96 384.079C2173.93 385.388 2170.83 386.087 2167.37 386.087C2163.91 386.087 2160.63 385.388 2157.69 384.079C2154.67 382.769 2152.08 381.024 2149.92 378.754ZM2178.34 345.583C2176.35 343.925 2173.24 343.052 2169.18 343.052H2155.79V377.968H2161.15V362.954H2166.85L2176.27 377.968H2182.06L2172.21 362.605C2174.8 362.343 2176.96 361.47 2178.69 359.987C2180.41 358.503 2181.28 356.233 2181.28 353.09C2181.28 349.686 2180.33 347.242 2178.34 345.583ZM2170.22 358.415C2169.18 358.503 2167.97 358.59 2166.76 358.59H2161.15V347.504H2168.32C2169.18 347.504 2170.13 347.504 2171 347.678C2171.88 347.74 2172.74 348.009 2173.5 348.464L2175.23 350.035C2175.66 350.734 2175.92 351.694 2175.92 352.829C2175.92 354.225 2175.66 355.273 2175.14 356.058C2174.63 356.844 2173.93 357.368 2173.16 357.804C2172.29 358.153 2171.34 358.415 2170.22 358.415Z" fill="#5F00C0"/>
<path fill-rule="evenodd" clip-rule="evenodd" d="M1254.87 317.563C1254.87 365.049 1235.78 391.935 1163.3 391.935H966.083C828.21 391.935 798.925 367.843 798.925 283.781V263.53C798.925 182.611 838.231 159.217 971.525 159.217H1120.97C1145.59 159.217 1154.15 157.733 1154.15 142.195C1154.15 90.4312 1162.35 97.0654 1040.12 97.0654H855.249C825.187 97.0654 820.608 81.7894 820.608 62.3235V46.0873C820.608 11.9565 835.207 18.5033 991.653 18.5033H1050.22C1256.43 18.5033 1255.04 0.17214 1255.04 189.594V317.563H1254.87ZM1065.6 231.93C1149.57 231.93 1153.37 229.137 1153.37 266.498H1153.45V280.551C1153.45 315.468 1139.55 308.572 1063.18 308.572H1009.28C903.798 308.572 902.934 315.643 902.934 275.227V267.458C902.934 229.312 903.798 231.93 1004.78 231.93H1065.6Z" fill="#5F00C0"/>
<path fill-rule="evenodd" clip-rule="evenodd" d="M1254.87 317.563C1254.87 365.049 1235.78 391.935 1163.3 391.935H966.083C828.21 391.935 798.925 367.843 798.925 283.781V263.53C798.925 182.611 838.231 159.217 971.525 159.217H1120.97C1145.59 159.217 1154.15 157.733 1154.15 142.195C1154.15 90.4312 1162.35 97.0654 1040.12 97.0654H855.249C825.187 97.0654 820.608 81.7894 820.608 62.3235V46.0873C820.608 11.9565 835.207 18.5033 991.653 18.5033H1050.22C1256.43 18.5033 1255.04 0.17214 1255.04 189.594V317.563H1254.87ZM1065.6 231.93C1149.57 231.93 1153.37 229.137 1153.37 266.498H1153.45V280.551C1153.45 315.468 1139.55 308.572 1063.18 308.572H1009.28C903.798 308.572 902.934 315.643 902.934 275.227V267.458C902.934 229.312 903.798 231.93 1004.78 231.93H1065.6Z" fill="#5F00C0"/>
<path fill-rule="evenodd" clip-rule="evenodd" d="M1254.87 317.563C1254.87 365.049 1235.78 391.935 1163.3 391.935H966.083C828.21 391.935 798.925 367.843 798.925 283.781V263.53C798.925 182.611 838.231 159.217 971.525 159.217H1120.97C1145.59 159.217 1154.15 157.733 1154.15 142.195C1154.15 90.4312 1162.35 97.0654 1040.12 97.0654H855.249C825.187 97.0654 820.608 81.7894 820.608 62.3235V46.0873C820.608 11.9565 835.207 18.5033 991.653 18.5033H1050.22C1256.43 18.5033 1255.04 0.17214 1255.04 189.594V317.563H1254.87ZM1065.6 231.93C1149.57 231.93 1153.37 229.137 1153.37 266.498H1153.45V280.551C1153.45 315.468 1139.55 308.572 1063.18 308.572H1009.28C903.798 308.572 902.934 315.643 902.934 275.227V267.458C902.934 229.312 903.798 231.93 1004.78 231.93H1065.6Z" fill="#5F00C0"/>
<path d="M618.637 391.848L551.342 391.935C370.622 391.935 320 366.097 320 210.369V200.244C320 44.6034 374.164 18.1541 551.256 18.1541H618.551C632.519 18.1541 645.244 18.1176 656.836 18.0842C761.312 17.784 773.7 17.7484 773.7 47.1348V72.2747C773.7 92.5262 761.261 96.9781 740.787 96.9781H557.13C445.174 96.9781 420.294 113.04 420.294 197.101V206.703C420.294 289.979 445.951 308.659 556.439 308.659H740.874C767.049 308.659 773.787 311.627 773.787 333.625V364.788L773.787 365.641C773.791 374.324 773.794 380.175 770.025 384.107C762.235 392.234 738.336 392.161 665.043 391.937H665.025C651.353 391.895 635.962 391.848 618.637 391.848Z" fill="#5F00C0"/>
<path d="M618.637 391.848L551.342 391.935C370.622 391.935 320 366.097 320 210.369V200.244C320 44.6034 374.164 18.1541 551.256 18.1541H618.551C632.519 18.1541 645.244 18.1176 656.836 18.0842C761.312 17.784 773.7 17.7484 773.7 47.1348V72.2747C773.7 92.5262 761.261 96.9781 740.787 96.9781H557.13C445.174 96.9781 420.294 113.04 420.294 197.101V206.703C420.294 289.979 445.951 308.659 556.439 308.659H740.874C767.049 308.659 773.787 311.627 773.787 333.625V364.788L773.787 365.641C773.791 374.324 773.794 380.175 770.025 384.107C762.235 392.234 738.336 392.161 665.043 391.937H665.025C651.353 391.895 635.962 391.848 618.637 391.848Z" fill="#5F00C0"/>
<path d="M618.637 391.848L551.342 391.935C370.622 391.935 320 366.097 320 210.369V200.244C320 44.6034 374.164 18.1541 551.256 18.1541H618.551C632.519 18.1541 645.244 18.1176 656.836 18.0842C761.312 17.784 773.7 17.7484 773.7 47.1348V72.2747C773.7 92.5262 761.261 96.9781 740.787 96.9781H557.13C445.174 96.9781 420.294 113.04 420.294 197.101V206.703C420.294 289.979 445.951 308.659 556.439 308.659H740.874C767.049 308.659 773.787 311.627 773.787 333.625V364.788L773.787 365.641C773.791 374.324 773.794 380.175 770.025 384.107C762.235 392.234 738.336 392.161 665.043 391.937H665.025C651.353 391.895 635.962 391.848 618.637 391.848Z" fill="#5F00C0"/>
<path d="M1714.96 143.679C1714.96 165.414 1703.39 166.636 1680.24 166.636H1652.51C1649.31 166.636 1646.35 166.699 1643.61 166.757C1625.94 167.132 1617.66 167.307 1616.31 149.091C1612.51 111.73 1602.49 96.9781 1536.23 96.9781H1459.95C1430.67 96.9781 1416.07 109.373 1416.07 135.823V353.702C1416.07 377.008 1404.49 391.848 1380.65 391.848H1345.23C1322.08 391.848 1309.81 377.008 1309.81 353.702V101.692C1309.81 51.8485 1329.85 18.1541 1403.8 18.1541H1568.63C1670.3 18.1541 1715.05 52.6341 1715.05 135.212V143.679H1714.96Z" fill="#5F00C0"/>
<path d="M1714.96 143.679C1714.96 165.414 1703.39 166.636 1680.24 166.636H1652.51C1649.31 166.636 1646.35 166.699 1643.61 166.757C1625.94 167.132 1617.66 167.307 1616.31 149.091C1612.51 111.73 1602.49 96.9781 1536.23 96.9781H1459.95C1430.67 96.9781 1416.07 109.373 1416.07 135.823V353.702C1416.07 377.008 1404.49 391.848 1380.65 391.848H1345.23C1322.08 391.848 1309.81 377.008 1309.81 353.702V101.692C1309.81 51.8485 1329.85 18.1541 1403.8 18.1541H1568.63C1670.3 18.1541 1715.05 52.6341 1715.05 135.212V143.679H1714.96Z" fill="#5F00C0"/>
<path d="M1714.96 143.679C1714.96 165.414 1703.39 166.636 1680.24 166.636H1652.51C1649.31 166.636 1646.35 166.699 1643.61 166.757C1625.94 167.132 1617.66 167.307 1616.31 149.091C1612.51 111.73 1602.49 96.9781 1536.23 96.9781H1459.95C1430.67 96.9781 1416.07 109.373 1416.07 135.823V353.702C1416.07 377.008 1404.49 391.848 1380.65 391.848H1345.23C1322.08 391.848 1309.81 377.008 1309.81 353.702V101.692C1309.81 51.8485 1329.85 18.1541 1403.8 18.1541H1568.63C1670.3 18.1541 1715.05 52.6341 1715.05 135.212V143.679H1714.96Z" fill="#5F00C0"/>
<path d="M773.787 364.788H773.287C773.287 365.075 773.287 365.36 773.287 365.641L773.787 365.641L774.287 365.641C774.287 365.359 774.287 365.075 774.287 364.788H773.787ZM665.043 391.937L665.045 391.437C665.04 391.437 665.036 391.437 665.033 391.437C665.03 391.437 665.028 391.437 665.026 391.437L665.025 391.937L665.023 392.437C665.028 392.437 665.032 392.437 665.035 392.437C665.038 392.437 665.04 392.437 665.042 392.437L665.043 391.937ZM773.787 364.788H772.787V364.788L773.787 364.788ZM618.637 391.848V390.848H618.636L618.637 391.848ZM551.342 391.935V392.935H551.344L551.342 391.935ZM1254.87 317.563V316.563H1253.87V317.563H1254.87ZM1255.04 317.563V318.563H1256.04V317.563H1255.04ZM1153.37 266.498H1152.37V267.498H1153.37V266.498ZM1153.45 266.498H1154.45V265.498H1153.45V266.498ZM1714.96 143.679V142.679H1713.96V143.679H1714.96ZM1616.31 149.091L1617.31 149.017L1617.31 149.003L1617.31 148.99L1616.31 149.091ZM1715.05 143.679V144.679H1716.05V143.679H1715.05ZM2139.9 348.639L2138.99 348.222L2138.98 348.235L2138.98 348.248L2139.9 348.639ZM2146.38 339.211L2145.68 338.496L2145.68 338.497L2146.38 339.211ZM2155.88 332.926L2155.49 332.004L2155.48 332.009L2155.88 332.926ZM2178.86 332.926L2179.26 332.012L2179.25 332.006L2179.24 332.001L2178.86 332.926ZM2188.27 339.211L2188.99 338.508L2188.97 338.496L2188.96 338.485L2188.27 339.211ZM2194.67 348.639L2195.59 348.248L2195.58 348.235L2195.58 348.222L2194.67 348.639ZM2194.67 372.382L2195.58 372.79L2195.58 372.781L2195.59 372.772L2194.67 372.382ZM2188.27 381.897L2188.96 382.623L2188.97 382.611L2188.99 382.6L2188.27 381.897ZM2178.86 388.182L2179.24 389.107L2179.25 389.102L2179.26 389.096L2178.86 388.182ZM2155.88 388.182L2155.48 389.099L2155.49 389.104L2155.88 388.182ZM2146.38 381.897L2145.68 382.611L2145.68 382.612L2146.38 381.897ZM2139.9 372.382L2138.98 372.772L2138.98 372.781L2138.99 372.79L2139.9 372.382ZM2144.74 370.636L2143.8 370.995L2143.81 371.011L2143.82 371.026L2144.74 370.636ZM2149.92 378.754L2149.18 379.43L2149.19 379.437L2149.2 379.443L2149.92 378.754ZM2157.69 384.079L2158.1 383.165L2158.09 383.161L2157.69 384.079ZM2176.96 384.079L2177.36 384.997L2177.37 384.992L2176.96 384.079ZM2184.65 378.754L2185.37 379.443L2185.38 379.437L2185.38 379.43L2184.65 378.754ZM2189.74 370.636L2188.82 370.255L2188.82 370.261L2188.81 370.268L2189.74 370.636ZM2189.74 350.384L2188.81 350.753L2188.82 350.759L2188.82 350.766L2189.74 350.384ZM2184.65 342.354L2185.37 341.664L2185.36 341.657L2185.36 341.65L2184.65 342.354ZM2176.96 337.029L2177.37 336.116L2177.36 336.111L2176.96 337.029ZM2157.69 337.029L2158.09 337.947L2158.1 337.942L2157.69 337.029ZM2149.92 342.354L2149.21 341.65L2149.2 341.657L2149.2 341.664L2149.92 342.354ZM2144.74 350.384L2143.82 349.994L2143.81 350.01L2143.8 350.025L2144.74 350.384ZM2172.21 362.605L2172.11 361.61L2170.49 361.774L2171.37 363.145L2172.21 362.605ZM2182.06 377.968V378.968H2183.88L2182.9 377.429L2182.06 377.968ZM2176.27 377.968L2175.42 378.5L2175.71 378.968H2176.27V377.968ZM2166.85 362.954L2167.7 362.423L2167.4 361.954H2166.85V362.954ZM2161.15 362.954V361.954H2160.15V362.954H2161.15ZM2161.15 377.968V378.968H2162.15V377.968H2161.15ZM2155.79 377.968H2154.79V378.968H2155.79V377.968ZM2155.79 343.052V342.052H2154.79V343.052H2155.79ZM2170.22 358.415V357.415H2170.18L2170.14 357.419L2170.22 358.415ZM2173.16 357.804L2173.53 358.731L2173.59 358.707L2173.65 358.676L2173.16 357.804ZM2175.23 350.035L2176.08 349.509L2176.01 349.39L2175.9 349.296L2175.23 350.035ZM2173.5 348.464L2174.18 347.724L2174.1 347.657L2174.02 347.605L2173.5 348.464ZM2171 347.678L2170.8 348.659L2170.86 348.672L2170.93 348.676L2171 347.678ZM2161.15 347.504V346.504H2160.15V347.504H2161.15ZM2161.15 358.59H2160.15V359.59H2161.15V358.59ZM770.025 384.107L770.747 384.799L770.025 384.107ZM656.836 18.0842L656.833 17.0843L656.836 18.0842ZM1643.61 166.757L1643.59 165.757L1643.61 166.757ZM773.787 365.641L772.787 365.641V365.641L773.787 365.641ZM665.043 391.937L665.046 390.937H665.043V391.937ZM665.025 391.937L665.022 392.937H665.025V391.937ZM618.637 391.848L618.636 390.848L551.341 390.935L551.342 391.935L551.344 392.935L618.638 392.848L618.637 391.848ZM551.342 391.935V390.935C506.176 390.935 469.191 389.32 439.113 384.477C409.034 379.635 385.938 371.576 368.494 358.745C333.671 333.13 321 288.204 321 210.369H320H319C319 288.263 331.64 334.119 367.309 360.356C385.11 373.449 408.554 381.583 438.795 386.452C469.036 391.321 506.149 392.935 551.342 392.935V391.935ZM320 210.369H321V200.244H320H319V210.369H320ZM320 200.244H321C321 122.47 334.549 77.4028 369.808 51.6412C387.472 38.7356 410.674 30.6036 440.573 25.7055C470.473 20.8075 506.998 19.1541 551.256 19.1541V18.1541V17.1541C506.968 17.1541 470.313 18.807 440.25 23.7319C410.187 28.6568 386.643 36.8646 368.629 50.0263C332.533 76.3994 319 122.377 319 200.244H320ZM551.256 18.1541V19.1541H618.551V18.1541V17.1541H551.256V18.1541ZM773.7 47.1348H772.7V72.2747H773.7H774.7V47.1348H773.7ZM773.7 72.2747H772.7C772.7 82.1777 769.677 87.9748 764.381 91.3795C758.974 94.855 751.006 95.9781 740.787 95.9781V96.9781V97.9781C751.042 97.9781 759.53 96.8752 765.462 93.0619C771.504 89.1778 774.7 82.6232 774.7 72.2747H773.7ZM740.787 96.9781V95.9781H557.13V96.9781V97.9781H740.787V96.9781ZM557.13 96.9781V95.9781C529.127 95.9781 506.518 96.9817 488.364 99.8131C470.212 102.644 456.432 107.314 446.145 114.704C425.492 129.543 419.294 155.057 419.294 197.101H420.294H421.294C421.294 155.083 427.536 130.537 447.312 116.329C457.24 109.196 470.671 104.597 488.672 101.789C506.67 98.9822 529.155 97.9781 557.13 97.9781V96.9781ZM420.294 197.101H419.294V206.703H420.294H421.294V197.101H420.294ZM420.294 206.703H419.294C419.294 248.367 425.692 274.319 446.336 289.711C456.624 297.382 470.362 302.359 488.387 305.425C506.412 308.492 528.799 309.659 556.439 309.659V308.659V307.659C528.836 307.659 506.582 306.492 488.722 303.453C470.862 300.415 457.469 295.517 447.532 288.108C427.725 273.341 421.294 248.315 421.294 206.703H420.294ZM556.439 308.659V309.659H740.874V308.659V307.659H556.439V308.659ZM740.874 308.659V309.659C747.41 309.659 752.679 309.845 756.916 310.456C761.156 311.068 764.275 312.094 766.57 313.71C771.08 316.887 772.787 322.637 772.787 333.625H773.787H774.787C774.787 322.615 773.125 315.882 767.722 312.075C765.06 310.2 761.587 309.109 757.202 308.477C752.814 307.844 747.425 307.659 740.874 307.659V308.659ZM773.787 333.625H772.787V364.788H773.787H774.787V333.625H773.787ZM1254.87 317.563H1253.87C1253.87 341.201 1249.12 359.443 1235.59 371.819C1222.04 384.22 1199.46 390.935 1163.3 390.935V391.935V392.935C1199.62 392.935 1222.83 386.207 1236.94 373.294C1251.08 360.355 1255.87 341.412 1255.87 317.563H1254.87ZM1163.3 391.935V390.935H966.083V391.935V392.935H1163.3V391.935ZM966.083 391.935V390.935C931.636 390.935 904.015 389.43 881.959 385.87C859.898 382.31 843.471 376.704 831.36 368.552C807.245 352.318 799.925 325.745 799.925 283.781H798.925H797.925C797.925 325.879 805.247 353.383 830.243 370.211C842.688 378.589 859.433 384.26 881.64 387.844C903.851 391.429 931.593 392.935 966.083 392.935V391.935ZM798.925 283.781H799.925V263.53H798.925H797.925V283.781H798.925ZM798.925 263.53H799.925C799.925 243.37 802.375 226.885 808.07 213.484C813.754 200.109 822.689 189.76 835.756 181.885C861.978 166.082 904.862 160.217 971.525 160.217V159.217V158.217C904.894 158.217 861.478 164.049 834.724 180.172C821.302 188.261 812.081 198.932 806.229 212.702C800.388 226.446 797.925 243.23 797.925 263.53H798.925ZM971.525 159.217V160.217H1120.97V159.217V158.217H971.525V159.217ZM1120.97 159.217V160.217C1127.13 160.217 1132.32 160.124 1136.63 159.738C1140.94 159.353 1144.44 158.669 1147.2 157.447C1149.98 156.21 1152.01 154.42 1153.32 151.864C1154.6 149.341 1155.15 146.156 1155.15 142.195H1154.15H1153.15C1153.15 146.003 1152.62 148.83 1151.53 150.955C1150.47 153.048 1148.81 154.542 1146.39 155.618C1143.93 156.709 1140.68 157.368 1136.45 157.746C1132.24 158.124 1127.13 158.217 1120.97 158.217V159.217ZM1154.15 142.195H1155.15C1155.15 135.807 1155.27 130.113 1155.26 125.391C1155.24 120.611 1155.09 116.553 1154.5 113.137C1153.92 109.712 1152.89 106.866 1151.08 104.553C1149.27 102.232 1146.75 100.529 1143.31 99.279C1136.51 96.8049 1125.9 96.0242 1109.51 95.8377C1093.09 95.6508 1070.64 96.0654 1040.12 96.0654V97.0654V98.0654C1070.71 98.0654 1093.07 97.6507 1109.49 97.8375C1125.94 98.0247 1136.2 98.8207 1142.63 101.159C1145.8 102.314 1147.98 103.826 1149.51 105.783C1151.04 107.747 1151.98 110.242 1152.53 113.474C1153.09 116.715 1153.24 120.632 1153.26 125.397C1153.27 130.219 1153.15 135.642 1153.15 142.195H1154.15ZM1040.12 97.0654V96.0654H855.249V97.0654V98.0654H1040.12V97.0654ZM855.249 97.0654V96.0654C840.369 96.0654 832.076 92.2868 827.442 86.3771C822.764 80.4108 821.608 72.0312 821.608 62.3235H820.608H819.608C819.608 72.0817 820.742 81.073 825.868 87.6112C831.039 94.206 840.067 98.0654 855.249 98.0654V97.0654ZM820.608 62.3235H821.608V46.0873H820.608H819.608V62.3235H820.608ZM820.608 46.0873H821.608C821.608 37.5584 822.541 31.9294 826.073 28.0518C829.62 24.1583 835.998 21.8019 847.576 20.4899C859.111 19.1827 875.544 18.9331 898.923 19.0136C922.274 19.094 952.545 19.5033 991.653 19.5033V18.5033V17.5033C952.538 17.5033 922.317 17.0942 898.93 17.0136C875.571 16.9332 859.021 17.1801 847.351 18.5026C835.724 19.8202 828.674 22.2267 824.595 26.7049C820.501 31.199 819.608 37.5508 819.608 46.0873H820.608ZM991.653 18.5033V19.5033H1050.22V18.5033V17.5033H991.653V18.5033ZM1050.22 18.5033V19.5033C1101.82 19.5033 1140.33 18.3578 1169.18 19.5978C1198.04 20.839 1216.91 24.4705 1229.36 33.8151C1241.74 43.1127 1247.96 58.2331 1251.05 83.0719C1254.13 107.914 1254.04 142.207 1254.04 189.594H1255.04H1256.04C1256.04 142.27 1256.13 107.822 1253.03 82.8256C1249.93 57.8266 1243.61 42.0132 1230.56 32.2158C1217.58 22.4655 1198.13 18.8408 1169.26 17.5997C1140.37 16.3573 1101.73 17.5033 1050.22 17.5033V18.5033ZM1255.04 189.594H1254.04V317.563H1255.04H1256.04V189.594H1255.04ZM1255.04 317.563V316.563H1254.87V317.563V318.563H1255.04V317.563ZM1153.37 266.498H1154.37C1154.37 257.194 1154.14 250.192 1152.41 245.018C1151.54 242.4 1150.27 240.218 1148.44 238.427C1146.61 236.639 1144.26 235.287 1141.3 234.259C1135.41 232.216 1126.92 231.4 1114.76 231.078C1102.58 230.756 1086.57 230.93 1065.6 230.93V231.93V232.93C1086.61 232.93 1102.56 232.756 1114.71 233.077C1126.88 233.399 1135.08 234.219 1140.64 236.148C1143.4 237.106 1145.47 238.324 1147.04 239.857C1148.6 241.387 1149.72 243.278 1150.51 245.652C1152.12 250.461 1152.37 257.121 1152.37 266.498H1153.37ZM1065.6 231.93V230.93H1004.78V231.93V232.93H1065.6V231.93ZM1004.78 231.93V230.93C979.553 230.93 960.54 230.767 946.242 231.117C931.969 231.468 922.258 232.331 915.684 234.437C912.378 235.496 909.813 236.885 907.85 238.723C905.88 240.567 904.568 242.814 903.696 245.505C901.977 250.809 901.934 257.983 901.934 267.458H902.934H903.934C903.934 257.859 903.999 251.056 905.598 246.122C906.385 243.694 907.535 241.757 909.216 240.183C910.905 238.603 913.182 237.339 916.294 236.342C922.56 234.334 931.999 233.468 946.291 233.117C960.557 232.767 979.522 232.93 1004.78 232.93V231.93ZM902.934 267.458H901.934V275.227H902.934H903.934V267.458H902.934ZM902.934 275.227H901.934C901.934 280.272 901.947 284.614 902.179 288.326C902.411 292.034 902.864 295.177 903.772 297.813C904.686 300.469 906.066 302.617 908.136 304.312C910.194 305.997 912.874 307.184 916.313 308.027C923.152 309.703 933.274 310.077 948.164 310.045C963.157 310.014 982.854 309.572 1009.28 309.572V308.572V307.572C982.959 307.572 962.994 308.014 948.159 308.045C933.222 308.077 923.35 307.692 916.789 306.084C913.527 305.285 911.155 304.198 909.403 302.764C907.665 301.341 906.477 299.526 905.663 297.162C904.841 294.777 904.403 291.841 904.175 288.201C903.948 284.563 903.934 280.286 903.934 275.227H902.934ZM1009.28 308.572V309.572H1063.18V308.572V307.572H1009.28V308.572ZM1063.18 308.572V309.572C1082.27 309.572 1097.42 310.003 1109.49 310.104C1121.52 310.205 1130.52 309.98 1137.15 308.635C1143.82 307.283 1148.26 304.764 1150.95 300.165C1153.59 295.653 1154.45 289.298 1154.45 280.551H1153.45H1152.45C1152.45 289.264 1151.58 295.14 1149.23 299.155C1146.92 303.083 1143.11 305.387 1136.76 306.675C1130.36 307.972 1121.57 308.205 1109.51 308.104C1097.5 308.003 1082.27 307.572 1063.18 307.572V308.572ZM1153.45 280.551H1154.45V266.498H1153.45H1152.45V280.551H1153.45ZM1153.45 266.498V265.498H1153.37V266.498V267.498H1153.45V266.498ZM1714.96 143.679H1713.96C1713.96 149.036 1713.25 153.029 1711.88 156.021C1710.53 158.983 1708.52 161.01 1705.82 162.422C1703.09 163.849 1699.61 164.663 1695.33 165.111C1691.04 165.559 1686.03 165.636 1680.24 165.636V166.636V167.636C1686.02 167.636 1691.14 167.561 1695.53 167.1C1699.93 166.641 1703.69 165.79 1706.75 164.195C1709.83 162.584 1712.16 160.231 1713.7 156.851C1715.23 153.5 1715.96 149.189 1715.96 143.679H1714.96ZM1680.24 166.636V165.636H1652.51V166.636V167.636H1680.24V166.636ZM1616.31 149.091L1617.31 148.99C1615.4 130.294 1611.93 116.858 1600.29 108.221C1588.74 99.6477 1569.36 95.9781 1536.23 95.9781V96.9781V97.9781C1569.37 97.9781 1588.13 101.685 1599.1 109.827C1609.99 117.907 1613.42 130.527 1615.32 149.192L1616.31 149.091ZM1536.23 96.9781V95.9781H1459.95V96.9781V97.9781H1536.23V96.9781ZM1459.95 96.9781V95.9781C1445.19 95.9781 1433.94 99.0979 1426.37 105.73C1418.77 112.385 1415.07 122.416 1415.07 135.823H1416.07H1417.07C1417.07 122.78 1420.66 113.389 1427.69 107.234C1434.74 101.056 1445.43 97.9781 1459.95 97.9781V96.9781ZM1416.07 135.823H1415.07V353.702H1416.07H1417.07V135.823H1416.07ZM1416.07 353.702H1415.07C1415.07 365.203 1412.21 374.47 1406.55 380.851C1400.91 387.213 1392.36 390.848 1380.65 390.848V391.848V392.848C1392.79 392.848 1401.94 389.063 1408.05 382.178C1414.14 375.313 1417.07 365.507 1417.07 353.702H1416.07ZM1380.65 391.848V390.848H1345.23V391.848V392.848H1380.65V391.848ZM1345.23 391.848V390.848C1333.88 390.848 1325.32 387.217 1319.58 380.846C1313.84 374.459 1310.81 365.189 1310.81 353.702H1309.81H1308.81C1308.81 365.521 1311.92 375.324 1318.1 382.184C1324.28 389.059 1333.43 392.848 1345.23 392.848V391.848ZM1309.81 353.702H1310.81V101.692H1309.81H1308.81V353.702H1309.81ZM1309.81 101.692H1310.81C1310.81 76.8767 1315.81 56.3093 1329.79 41.929C1343.78 27.5512 1366.96 19.1541 1403.8 19.1541V18.1541V17.1541C1366.7 17.1541 1342.88 25.6042 1328.36 40.5345C1313.84 55.4622 1308.81 76.6636 1308.81 101.692H1309.81ZM1403.8 18.1541V19.1541H1568.63V18.1541V17.1541H1403.8V18.1541ZM1568.63 18.1541V19.1541C1619.39 19.1541 1655.72 27.7699 1679.35 46.5C1702.92 65.186 1714.05 94.1022 1714.05 135.212H1715.05H1716.05C1716.05 93.7435 1704.81 64.131 1680.59 44.9327C1656.42 25.7784 1619.54 17.1541 1568.63 17.1541V18.1541ZM1715.05 135.212H1714.05V143.679H1715.05H1716.05V135.212H1715.05ZM1715.05 143.679V142.679H1714.96V143.679V144.679H1715.05V143.679ZM2139.9 348.639L2140.81 349.056C2142.41 345.568 2144.41 342.532 2147.08 339.926L2146.38 339.211L2145.68 338.497C2142.81 341.302 2140.67 344.552 2138.99 348.222L2139.9 348.639ZM2146.38 339.211L2147.08 339.926C2149.66 337.4 2152.75 335.371 2156.28 333.844L2155.88 332.926L2155.48 332.009C2151.75 333.624 2148.45 335.785 2145.68 338.496L2146.38 339.211ZM2155.88 332.926L2156.27 333.849C2159.68 332.417 2163.44 331.657 2167.37 331.657V330.657V329.657C2163.18 329.657 2159.16 330.467 2155.49 332.004L2155.88 332.926ZM2167.37 330.657V331.657C2171.3 331.657 2174.97 332.415 2178.48 333.852L2178.86 332.926L2179.24 332.001C2175.49 330.469 2171.56 329.657 2167.37 329.657V330.657ZM2178.86 332.926L2178.45 333.84C2181.89 335.364 2184.9 337.395 2187.59 339.937L2188.27 339.211L2188.96 338.485C2186.12 335.79 2182.91 333.63 2179.26 332.012L2178.86 332.926ZM2188.27 339.211L2187.56 339.915C2190.15 342.526 2192.16 345.567 2193.76 349.056L2194.67 348.639L2195.58 348.222C2193.89 344.552 2191.76 341.308 2188.99 338.508L2188.27 339.211ZM2194.67 348.639L2193.75 349.029C2195.25 352.565 2196 356.36 2196 360.423H2197H2198C2198 356.106 2197.2 352.044 2195.59 348.248L2194.67 348.639ZM2197 360.423H2196C2196 364.578 2195.25 368.459 2193.75 371.991L2194.67 372.382L2195.59 372.772C2197.2 368.972 2198 364.823 2198 360.423H2197ZM2194.67 372.382L2193.76 371.973C2192.16 375.544 2190.15 378.583 2187.56 381.193L2188.27 381.897L2188.99 382.6C2191.76 379.798 2193.9 376.552 2195.58 372.79L2194.67 372.382ZM2188.27 381.897L2187.59 381.171C2184.9 383.713 2181.89 385.743 2178.45 387.267L2178.86 388.182L2179.26 389.096C2182.91 387.477 2186.12 385.318 2188.96 382.623L2188.27 381.897ZM2178.86 388.182L2178.48 387.256C2174.98 388.687 2171.31 389.364 2167.37 389.364V390.364V391.364C2171.55 391.364 2175.48 390.644 2179.24 389.107L2178.86 388.182ZM2167.37 390.364V389.364C2163.42 389.364 2159.67 388.685 2156.27 387.259L2155.88 388.182L2155.49 389.104C2159.17 390.646 2163.2 391.364 2167.37 391.364V390.364ZM2155.88 388.182L2156.28 387.264C2152.75 385.737 2149.66 383.707 2147.08 381.182L2146.38 381.897L2145.68 382.612C2148.45 385.323 2151.75 387.484 2155.48 389.099L2155.88 388.182ZM2146.38 381.897L2147.08 381.182C2144.42 378.577 2142.41 375.543 2140.81 371.973L2139.9 372.382L2138.99 372.79C2140.67 376.553 2142.81 379.804 2145.68 382.611L2146.38 381.897ZM2139.9 372.382L2140.82 371.991C2139.32 368.459 2138.57 364.578 2138.57 360.423H2137.57H2136.57C2136.57 364.823 2137.37 368.972 2138.98 372.772L2139.9 372.382ZM2137.57 360.423H2138.57C2138.57 356.36 2139.32 352.565 2140.82 349.029L2139.9 348.639L2138.98 348.248C2137.37 352.044 2136.57 356.106 2136.57 360.423H2137.57ZM2144.74 370.636L2143.82 371.026C2145.15 374.182 2146.94 376.986 2149.18 379.43L2149.92 378.754L2150.66 378.079C2148.58 375.809 2146.91 373.2 2145.66 370.246L2144.74 370.636ZM2149.92 378.754L2149.2 379.443C2151.46 381.821 2154.16 383.64 2157.3 384.996L2157.69 384.079L2158.09 383.161C2155.18 381.899 2152.7 380.227 2150.64 378.065L2149.92 378.754ZM2157.69 384.079L2157.29 384.992C2160.36 386.361 2163.78 387.087 2167.37 387.087V386.087V385.087C2164.05 385.087 2160.91 384.416 2158.1 383.165L2157.69 384.079ZM2167.37 386.087V387.087C2170.97 387.087 2174.21 386.357 2177.36 384.996L2176.96 384.079L2176.56 383.161C2173.66 384.419 2170.68 385.087 2167.37 385.087V386.087ZM2176.96 384.079L2177.37 384.992C2180.41 383.637 2183.11 381.819 2185.37 379.443L2184.65 378.754L2183.92 378.065C2181.86 380.228 2179.38 381.902 2176.55 383.165L2176.96 384.079ZM2184.65 378.754L2185.38 379.43C2187.62 376.986 2189.42 374.177 2190.67 371.004L2189.74 370.636L2188.81 370.268C2187.65 373.206 2185.99 375.808 2183.91 378.079L2184.65 378.754ZM2189.74 370.636L2190.67 371.017C2192.02 367.737 2192.64 364.201 2192.64 360.423H2191.64H2190.64C2190.64 363.978 2190.06 367.25 2188.82 370.255L2189.74 370.636ZM2191.64 360.423H2192.64C2192.64 356.727 2192.02 353.279 2190.67 350.003L2189.74 350.384L2188.82 350.766C2190.06 353.775 2190.64 356.961 2190.64 360.423H2191.64ZM2189.74 350.384L2190.67 350.016C2189.42 346.845 2187.62 344.029 2185.37 341.664L2184.65 342.354L2183.92 343.043C2185.99 345.217 2187.65 347.813 2188.81 350.753L2189.74 350.384ZM2184.65 342.354L2185.36 341.65C2183.11 339.383 2180.42 337.477 2177.37 336.116L2176.96 337.029L2176.55 337.942C2179.37 339.199 2181.86 340.96 2183.94 343.057L2184.65 342.354ZM2176.96 337.029L2177.36 336.111C2174.2 334.744 2170.95 334.108 2167.37 334.108V335.108V336.108C2170.7 336.108 2173.67 336.696 2176.56 337.947L2176.96 337.029ZM2167.37 335.108V334.108C2163.8 334.108 2160.37 334.74 2157.29 336.116L2157.69 337.029L2158.1 337.942C2160.89 336.699 2164.03 336.108 2167.37 336.108V335.108ZM2157.69 337.029L2157.3 336.111C2154.15 337.474 2151.45 339.382 2149.21 341.65L2149.92 342.354L2150.63 343.057C2152.7 340.961 2155.19 339.203 2158.09 337.947L2157.69 337.029ZM2149.92 342.354L2149.2 341.664C2146.94 344.03 2145.15 346.84 2143.82 349.994L2144.74 350.384L2145.66 350.775C2146.91 347.819 2148.58 345.217 2150.64 343.043L2149.92 342.354ZM2144.74 350.384L2143.8 350.025C2142.55 353.288 2141.92 356.727 2141.92 360.423H2142.92H2143.92C2143.92 356.961 2144.51 353.766 2145.67 350.744L2144.74 350.384ZM2142.92 360.423H2141.92C2141.92 364.201 2142.55 367.728 2143.8 370.995L2144.74 370.636L2145.67 370.277C2144.51 367.259 2143.92 363.977 2143.92 360.423H2142.92ZM2169.18 343.052V344.052C2173.13 344.052 2175.97 344.905 2177.7 346.351L2178.34 345.583L2178.98 344.816C2176.74 342.945 2173.36 342.052 2169.18 342.052V343.052ZM2178.34 345.583L2177.7 346.351C2179.39 347.762 2180.28 349.88 2180.28 353.09H2181.28H2182.28C2182.28 349.492 2181.26 346.721 2178.98 344.816L2178.34 345.583ZM2181.28 353.09H2180.28C2180.28 356.052 2179.47 357.996 2178.03 359.228L2178.69 359.987L2179.34 360.745C2181.36 359.009 2182.28 356.414 2182.28 353.09H2181.28ZM2178.69 359.987L2178.03 359.228C2176.48 360.56 2174.52 361.366 2172.11 361.61L2172.21 362.605L2172.31 363.6C2175.07 363.321 2177.43 362.381 2179.34 360.745L2178.69 359.987ZM2172.21 362.605L2171.37 363.145L2181.21 378.508L2182.06 377.968L2182.9 377.429L2173.05 362.066L2172.21 362.605ZM2182.06 377.968V376.968H2176.27V377.968V378.968H2182.06V377.968ZM2176.27 377.968L2177.11 377.437L2167.7 362.423L2166.85 362.954L2166 363.486L2175.42 378.5L2176.27 377.968ZM2166.85 362.954V361.954H2161.15V362.954V363.954H2166.85V362.954ZM2161.15 362.954H2160.15V377.968H2161.15H2162.15V362.954H2161.15ZM2161.15 377.968V376.968H2155.79V377.968V378.968H2161.15V377.968ZM2155.79 377.968H2156.79V343.052H2155.79H2154.79V377.968H2155.79ZM2155.79 343.052V344.052H2169.18V343.052V342.052H2155.79V343.052ZM2166.76 358.59V359.59C2168.02 359.59 2169.26 359.5 2170.3 359.412L2170.22 358.415L2170.14 357.419C2169.11 357.506 2167.93 357.59 2166.76 357.59V358.59ZM2170.22 358.415V359.415C2171.51 359.415 2172.59 359.113 2173.53 358.731L2173.16 357.804L2172.78 356.877C2172 357.194 2171.18 357.415 2170.22 357.415V358.415ZM2173.16 357.804L2173.65 358.676C2174.5 358.196 2175.34 357.576 2175.98 356.609L2175.14 356.058L2174.31 355.508C2173.91 356.112 2173.37 356.54 2172.67 356.932L2173.16 357.804ZM2175.14 356.058L2175.98 356.609C2176.64 355.603 2176.92 354.34 2176.92 352.829H2175.92H2174.92C2174.92 354.111 2174.68 354.942 2174.31 355.508L2175.14 356.058ZM2175.92 352.829H2176.92C2176.92 351.55 2176.63 350.398 2176.08 349.509L2175.23 350.035L2174.38 350.561C2174.69 351.069 2174.92 351.837 2174.92 352.829H2175.92ZM2175.23 350.035L2175.9 349.296L2174.18 347.724L2173.5 348.464L2172.83 349.204L2174.56 350.775L2175.23 350.035ZM2173.5 348.464L2174.02 347.605C2173.12 347.07 2172.11 346.753 2171.07 346.681L2171 347.678L2170.93 348.676C2171.66 348.727 2172.36 348.948 2172.99 349.323L2173.5 348.464ZM2171 347.678L2171.2 346.698C2170.22 346.5 2169.16 346.504 2168.32 346.504V347.504V348.504C2169.2 348.504 2170.05 348.507 2170.8 348.659L2171 347.678ZM2168.32 347.504V346.504H2161.15V347.504V348.504H2168.32V347.504ZM2161.15 347.504H2160.15V358.59H2161.15H2162.15V347.504H2161.15ZM2161.15 358.59V359.59H2166.76V358.59V357.59H2161.15V358.59ZM773.7 47.1348H774.7C774.7 39.7631 773.935 33.9869 770.96 29.5952C767.96 25.1656 762.853 22.3391 754.666 20.5013C746.484 18.6647 735.056 17.7783 719.198 17.3646C703.327 16.9505 682.946 17.0092 656.833 17.0843L656.836 18.0842L656.839 19.0842C682.964 19.0092 703.31 18.9508 719.146 19.3639C734.995 19.7774 746.253 20.6625 754.228 22.4528C762.197 24.2418 766.717 26.8977 769.304 30.7169C771.917 34.574 772.7 39.8133 772.7 47.1348H773.7ZM656.836 18.0842L656.833 17.0843C645.241 17.1176 632.517 17.1541 618.551 17.1541V18.1541V19.1541C632.52 19.1541 645.247 19.1176 656.839 19.0842L656.836 18.0842ZM1616.31 149.091L1615.31 149.165C1616 158.388 1618.46 163.368 1623.4 165.793C1625.79 166.971 1628.68 167.496 1632.01 167.714C1635.35 167.933 1639.23 167.85 1643.63 167.757L1643.61 166.757L1643.59 165.757C1639.16 165.851 1635.37 165.931 1632.14 165.719C1628.91 165.507 1626.33 165.007 1624.28 163.998C1620.32 162.051 1617.97 158.01 1617.31 149.017L1616.31 149.091ZM1643.61 166.757L1643.63 167.757C1646.37 167.699 1649.32 167.636 1652.51 167.636V166.636V165.636C1649.3 165.636 1646.33 165.7 1643.59 165.757L1643.61 166.757ZM773.787 365.641L772.787 365.641C772.789 370.009 772.788 373.556 772.332 376.503C771.881 379.421 770.997 381.647 769.303 383.415L770.025 384.107L770.747 384.799C772.821 382.635 773.82 379.97 774.309 376.808C774.793 373.676 774.789 369.956 774.787 365.64L773.787 365.641ZM770.025 384.107L769.303 383.415C767.538 385.257 764.787 386.711 760.397 387.821C756.007 388.93 750.073 389.671 742.037 390.155C725.967 391.122 701.71 391.049 665.046 390.937L665.043 391.937L665.04 392.937C701.669 393.049 726.008 393.123 742.158 392.151C750.232 391.665 756.314 390.915 760.887 389.76C765.459 388.604 768.617 387.021 770.747 384.799L770.025 384.107ZM773.787 364.788L772.787 364.788L772.787 365.641L773.787 365.641L774.787 365.64L774.787 364.787L773.787 364.788ZM665.043 391.937V390.937H665.025V391.937V392.937H665.043V391.937ZM665.025 391.937L665.028 390.937C651.356 390.895 635.964 390.848 618.637 390.848V391.848V392.848C635.961 392.848 651.35 392.895 665.022 392.937L665.025 391.937Z" fill="#5F00C0" mask="url(#path-3-inside-1_0_1)"/>
</svg>
